STARTFONT 2.1
COMMENT
COMMENT  Copyright 1989 by Sony Corp.
COMMENT
COMMENT  Permission to use, copy, modify, and distribute this software and
COMMENT  its documentation for any purpose and without fee is hereby granted,
COMMENT  provided that the above copyright notices appear in all copies and
COMMENT  that both those copyright notices and this permission notice appear
COMMENT  in supporting documentation, and that the name of Sony Corp.
COMMENT  not be used in advertising or publicity pertaining to distribution
COMMENT  of the software without specific, written prior permission.  Sony
COMMENT  Corp. makes no representations about the suitability of this
COMMENT  software for any purpose.  It is provided "as is" without express or
COMMENT  implied warranty.
COMMENT
COMMENT  SONY DISCLAIMS ALL WARRANTIES WITH REGARD TO THIS
COMMENT  SOFTWARE, INCLUDING ALL IMPLIED WARRANTIES OF MERCHANTABILITY AND
COMMENT  FITNESS, IN NO EVENT SHALL SONY BE LIABLE FOR ANY
COMMENT  SPECIAL, INDIRECT OR CONSEQUENTIAL DAMAGES OR ANY DAMAGES WHATSOEVER
COMMENT  RESULTING FROM LOSS OF USE, DATA OR PROFITS, WHETHER IN AN ACTION OF
COMMENT  CONTRACT, NEGLIGENCE OR OTHER TORTIOUS ACTION, ARISING OUT OF OR IN
COMMENT  CONNECTION WITH THE USE OR PERFORMANCE OF THIS SOFTWARE.
COMMENT
FONT -Sony-Fixed-Medium-R-Normal--16-120-100-100-C-80-iso10646-0400
SIZE 16 100 100
FONTBOUNDINGBOX 8 16 0 -2
STARTPROPERTIES 23
FONTNAME_REGISTRY ""
FOUNDRY "Sony"
FAMILY_NAME "Fixed"
WEIGHT_NAME "Medium"
SLANT "R"
SETWIDTH_NAME "Normal"
ADD_STYLE_NAME ""
PIXEL_SIZE 16
POINT_SIZE 120
RESOLUTION_X 100
RESOLUTION_Y 100
SPACING "C"
AVERAGE_WIDTH 80
CHARSET_REGISTRY "iso10646"
CHARSET_ENCODING "0400"
DEFAULT_CHAR 32
FONT_DESCENT 2
FONT_ASCENT 14
COPYRIGHT "Copyright (c) 1987, 1988 Sony Corp."
COPYRIGHT2 "Cyrillic and special glyphs copyright 2000 Dmitry Yu. Bolkhovityanov, bolkhov@inp.nsk.su"
SOURCEDATE "Wed Aug  2 12:12:41 2000"
PKGVERSION "1.1"
ASSEMBLER "cvtbdf.pl (Linux)"
ENDPROPERTIES
CHARS 339
STARTCHAR null
ENCODING 0
SWIDTH 480 0
DWIDTH 8 0
BBX 8 16 0 -2
BITMAP
00
7E
7E
7E
7E
7E
7E
7E
7E
7E
7E
7E
7E
7E
00
00
ENDCHAR
STARTCHAR ctrlA
ENCODING 1
SWIDTH 480 0
DWIDTH 8 0
BBX 8 16 0 -2
BITMAP
10
10
38
38
7C
7C
FE
FE
7C
7C
38
38
10
10
00
00
ENDCHAR
STARTCHAR ctrlB
ENCODING 2
SWIDTH 480 0
DWIDTH 8 0
BBX 8 16 0 -2
BITMAP
92
92
44
44
92
92
44
44
92
92
44
44
92
92
00
00
ENDCHAR
STARTCHAR ctrlC
ENCODING 3
SWIDTH 480 0
DWIDTH 8 0
BBX 8 16 0 -2
BITMAP
00
88
88
88
F8
88
88
88
00
3E
08
08
08
08
08
08
ENDCHAR
STARTCHAR ctrlD
ENCODING 4
SWIDTH 480 0
DWIDTH 8 0
BBX 8 16 0 -2
BITMAP
00
F8
80
80
F0
80
80
80
3E
20
20
3C
20
20
20
00
ENDCHAR
STARTCHAR ctrlE
ENCODING 5
SWIDTH 480 0
DWIDTH 8 0
BBX 8 16 0 -2
BITMAP
00
70
88
80
80
80
88
70
00
3C
22
22
3C
28
24
22
ENDCHAR
STARTCHAR ctrlF
ENCODING 6
SWIDTH 480 0
DWIDTH 8 0
BBX 8 16 0 -2
BITMAP
00
80
80
80
80
80
80
F8
00
3E
20
20
3C
20
20
20
ENDCHAR
STARTCHAR ctrlG
ENCODING 7
SWIDTH 480 0
DWIDTH 8 0
BBX 8 16 0 -2
BITMAP
00
00
38
44
44
44
38
00
00
00
00
00
00
00
00
00
ENDCHAR
STARTCHAR ctrlH
ENCODING 8
SWIDTH 480 0
DWIDTH 8 0
BBX 8 16 0 -2
BITMAP
00
00
10
10
10
10
FE
10
10
10
10
00
FE
00
00
00
ENDCHAR
STARTCHAR ctrlI
ENCODING 9
SWIDTH 480 0
DWIDTH 8 0
BBX 8 16 0 -2
BITMAP
00
84
C4
A4
A4
94
94
8C
84
20
20
20
20
20
20
3E
ENDCHAR
STARTCHAR ctrlJ
ENCODING 10
SWIDTH 480 0
DWIDTH 8 0
BBX 8 16 0 -2
BITMAP
00
00
88
88
88
50
50
20
00
3E
08
08
08
08
08
00
ENDCHAR
STARTCHAR ldcornsqlr
ENCODING 11
SWIDTH 480 0
DWIDTH 8 0
BBX 8 16 0 -2
BITMAP
10
10
10
10
10
10
10
10
F0
00
00
00
00
00
00
00
ENDCHAR
STARTCHAR ldcornsqur
ENCODING 12
SWIDTH 480 0
DWIDTH 8 0
BBX 8 16 0 -2
BITMAP
00
00
00
00
00
00
00
00
F0
10
10
10
10
10
10
10
ENDCHAR
STARTCHAR ldcornsqul
ENCODING 13
SWIDTH 480 0
DWIDTH 8 0
BBX 8 16 0 -2
BITMAP
00
00
00
00
00
00
00
00
1F
10
10
10
10
10
10
10
ENDCHAR
STARTCHAR ldcornsqll
ENCODING 14
SWIDTH 480 0
DWIDTH 8 0
BBX 8 16 0 -2
BITMAP
10
10
10
10
10
10
10
10
1F
00
00
00
00
00
00
00
ENDCHAR
STARTCHAR ldcross
ENCODING 15
SWIDTH 480 0
DWIDTH 8 0
BBX 8 16 0 -2
BITMAP
10
10
10
10
10
10
10
10
FF
10
10
10
10
10
10
10
ENDCHAR
STARTCHAR ctrlP
ENCODING 16
SWIDTH 480 0
DWIDTH 8 0
BBX 8 16 0 -2
BITMAP
00
00
FF
00
00
00
00
00
00
00
00
00
00
00
00
00
ENDCHAR
STARTCHAR ctrlQ
ENCODING 17
SWIDTH 480 0
DWIDTH 8 0
BBX 8 16 0 -2
BITMAP
00
00
00
00
00
FF
00
00
00
00
00
00
00
00
00
00
ENDCHAR
STARTCHAR ldhorizontal
ENCODING 18
SWIDTH 480 0
DWIDTH 8 0
BBX 8 16 0 -2
BITMAP
00
00
00
00
00
00
00
00
FF
00
00
00
00
00
00
00
ENDCHAR
STARTCHAR ctrlS
ENCODING 19
SWIDTH 480 0
DWIDTH 8 0
BBX 8 16 0 -2
BITMAP
00
00
00
00
00
00
00
00
00
00
00
FF
00
00
00
00
ENDCHAR
STARTCHAR ctrlT
ENCODING 20
SWIDTH 480 0
DWIDTH 8 0
BBX 8 16 0 -2
BITMAP
00
00
00
00
00
00
00
00
00
00
00
00
00
00
FF
00
ENDCHAR
STARTCHAR ldteelft
ENCODING 21
SWIDTH 480 0
DWIDTH 8 0
BBX 8 16 0 -2
BITMAP
10
10
10
10
10
10
10
10
1F
10
10
10
10
10
10
10
ENDCHAR
STARTCHAR ldteert
ENCODING 22
SWIDTH 480 0
DWIDTH 8 0
BBX 8 16 0 -2
BITMAP
10
10
10
10
10
10
10
10
F0
10
10
10
10
10
10
10
ENDCHAR
STARTCHAR ldteebt
ENCODING 23
SWIDTH 480 0
DWIDTH 8 0
BBX 8 16 0 -2
BITMAP
10
10
10
10
10
10
10
10
FF
00
00
00
00
00
00
00
ENDCHAR
STARTCHAR ldteetp
ENCODING 24
SWIDTH 480 0
DWIDTH 8 0
BBX 8 16 0 -2
BITMAP
00
00
00
00
00
00
00
00
FF
10
10
10
10
10
10
10
ENDCHAR
STARTCHAR ldvertical
ENCODING 25
SWIDTH 480 0
DWIDTH 8 0
BBX 8 16 0 -2
BITMAP
10
10
10
10
10
10
10
10
10
10
10
10
10
10
10
10
ENDCHAR
STARTCHAR ctrlZ
ENCODING 26
SWIDTH 480 0
DWIDTH 8 0
BBX 8 16 0 -2
BITMAP
00
00
00
00
02
0C
30
C0
30
0C
02
FE
00
FE
00
00
ENDCHAR
STARTCHAR ctrlBRL
ENCODING 27
SWIDTH 480 0
DWIDTH 8 0
BBX 8 16 0 -2
BITMAP
00
00
00
00
80
60
18
06
18
60
80
FE
00
FE
00
00
ENDCHAR
STARTCHAR ctrlBSLASH
ENCODING 28
SWIDTH 480 0
DWIDTH 8 0
BBX 8 16 0 -2
BITMAP
00
00
00
00
00
00
00
FE
24
24
24
24
44
84
00
00
ENDCHAR
STARTCHAR ctrlBRR
ENCODING 29
SWIDTH 480 0
DWIDTH 8 0
BBX 8 16 0 -2
BITMAP
00
00
00
00
02
04
08
FE
10
FE
20
40
80
00
00
00
ENDCHAR
STARTCHAR ctrlCARET
ENCODING 30
SWIDTH 480 0
DWIDTH 8 0
BBX 8 16 0 -2
BITMAP
00
00
00
00
0C
12
10
10
10
7C
10
10
3C
52
20
00
ENDCHAR
STARTCHAR ctrlUND
ENCODING 31
SWIDTH 480 0
DWIDTH 8 0
BBX 8 16 0 -2
BITMAP
00
00
00
00
00
00
00
00
10
00
00
00
00
00
00
00
ENDCHAR
STARTCHAR space
ENCODING 32
SWIDTH 480 0
DWIDTH 8 0
BBX 8 16 0 -2
BITMAP
00
00
00
00
00
00
00
00
00
00
00
00
00
00
00
00
ENDCHAR
STARTCHAR exclam
ENCODING 33
SWIDTH 480 0
DWIDTH 8 0
BBX 8 16 0 -2
BITMAP
00
38
38
38
38
38
38
10
10
10
10
00
00
10
38
10
ENDCHAR
STARTCHAR quotedbl
ENCODING 34
SWIDTH 480 0
DWIDTH 8 0
BBX 8 16 0 -2
BITMAP
66
66
66
66
44
00
00
00
00
00
00
00
00
00
00
00
ENDCHAR
STARTCHAR numbersign
ENCODING 35
SWIDTH 480 0
DWIDTH 8 0
BBX 8 16 0 -2
BITMAP
00
12
12
12
7F
24
24
24
24
24
FE
48
48
48
48
00
ENDCHAR
STARTCHAR dollar
ENCODING 36
SWIDTH 480 0
DWIDTH 8 0
BBX 8 16 0 -2
BITMAP
10
38
54
92
96
90
50
38
14
12
D2
92
94
78
10
10
ENDCHAR
STARTCHAR percent
ENCODING 37
SWIDTH 480 0
DWIDTH 8 0
BBX 8 16 0 -2
BITMAP
02
62
94
94
94
98
68
10
10
2C
32
52
52
52
8C
80
ENDCHAR
STARTCHAR ampersand
ENCODING 38
SWIDTH 480 0
DWIDTH 8 0
BBX 8 16 0 -2
BITMAP
00
30
48
48
48
50
20
2E
54
54
94
88
8C
72
00
00
ENDCHAR
STARTCHAR quotesingle
ENCODING 39
SWIDTH 480 0
DWIDTH 8 0
BBX 8 16 0 -2
BITMAP
18
18
18
18
10
00
00
00
00
00
00
00
00
00
00
00
ENDCHAR
STARTCHAR parenleft
ENCODING 40
SWIDTH 480 0
DWIDTH 8 0
BBX 8 16 0 -2
BITMAP
02
04
08
08
10
10
10
10
10
10
10
10
08
08
04
02
ENDCHAR
STARTCHAR parenright
ENCODING 41
SWIDTH 480 0
DWIDTH 8 0
BBX 8 16 0 -2
BITMAP
80
40
20
20
10
10
10
10
10
10
10
10
20
20
40
80
ENDCHAR
STARTCHAR asterisk
ENCODING 42
SWIDTH 480 0
DWIDTH 8 0
BBX 8 16 0 -2
BITMAP
00
00
00
10
38
92
D6
38
D6
92
38
10
00
00
00
00
ENDCHAR
STARTCHAR plus
ENCODING 43
SWIDTH 480 0
DWIDTH 8 0
BBX 8 16 0 -2
BITMAP
00
00
00
10
10
10
10
FE
10
10
10
10
00
00
00
00
ENDCHAR
STARTCHAR comma
ENCODING 44
SWIDTH 480 0
DWIDTH 8 0
BBX 8 16 0 -2
BITMAP
00
00
00
00
00
00
00
00
00
00
00
E0
E0
20
20
C0
ENDCHAR
STARTCHAR minus
ENCODING 45
SWIDTH 480 0
DWIDTH 8 0
BBX 8 16 0 -2
BITMAP
00
00
00
00
00
00
00
FE
00
00
00
00
00
00
00
00
ENDCHAR
STARTCHAR period
ENCODING 46
SWIDTH 480 0
DWIDTH 8 0
BBX 8 16 0 -2
BITMAP
00
00
00
00
00
00
00
00
00
00
00
40
E0
E0
40
00
ENDCHAR
STARTCHAR slash
ENCODING 47
SWIDTH 480 0
DWIDTH 8 0
BBX 8 16 0 -2
BITMAP
02
02
04
04
08
08
08
10
10
10
20
20
40
40
80
80
ENDCHAR
STARTCHAR zero
ENCODING 48
SWIDTH 480 0
DWIDTH 8 0
BBX 8 16 0 -2
BITMAP
00
18
24
24
42
42
42
42
42
42
42
42
24
24
18
00
ENDCHAR
STARTCHAR one
ENCODING 49
SWIDTH 480 0
DWIDTH 8 0
BBX 8 16 0 -2
BITMAP
00
10
70
10
10
10
10
10
10
10
10
10
10
7C
00
00
ENDCHAR
STARTCHAR two
ENCODING 50
SWIDTH 480 0
DWIDTH 8 0
BBX 8 16 0 -2
BITMAP
00
18
24
42
62
02
04
08
08
10
20
22
42
7E
00
00
ENDCHAR
STARTCHAR three
ENCODING 51
SWIDTH 480 0
DWIDTH 8 0
BBX 8 16 0 -2
BITMAP
00
38
44
82
82
02
04
38
04
02
82
82
44
38
00
00
ENDCHAR
STARTCHAR four
ENCODING 52
SWIDTH 480 0
DWIDTH 8 0
BBX 8 16 0 -2
BITMAP
00
08
18
28
28
48
48
88
88
FE
08
08
08
3C
00
00
ENDCHAR
STARTCHAR five
ENCODING 53
SWIDTH 480 0
DWIDTH 8 0
BBX 8 16 0 -2
BITMAP
00
FC
80
80
80
B8
C4
82
02
02
C2
82
44
38
00
00
ENDCHAR
STARTCHAR six
ENCODING 54
SWIDTH 480 0
DWIDTH 8 0
BBX 8 16 0 -2
BITMAP
00
3C
42
46
80
80
B8
C4
82
82
82
82
44
38
00
00
ENDCHAR
STARTCHAR seven
ENCODING 55
SWIDTH 480 0
DWIDTH 8 0
BBX 8 16 0 -2
BITMAP
00
FE
82
82
04
04
04
08
08
08
08
10
10
10
10
00
ENDCHAR
STARTCHAR eight
ENCODING 56
SWIDTH 480 0
DWIDTH 8 0
BBX 8 16 0 -2
BITMAP
00
38
44
82
82
82
44
38
44
82
82
82
44
38
00
00
ENDCHAR
STARTCHAR nine
ENCODING 57
SWIDTH 480 0
DWIDTH 8 0
BBX 8 16 0 -2
BITMAP
00
38
44
82
82
82
82
46
3A
02
02
82
44
38
00
00
ENDCHAR
STARTCHAR colon
ENCODING 58
SWIDTH 480 0
DWIDTH 8 0
BBX 8 16 0 -2
BITMAP
00
00
00
00
00
38
38
00
00
00
00
00
38
38
00
00
ENDCHAR
STARTCHAR semicolon
ENCODING 59
SWIDTH 480 0
DWIDTH 8 0
BBX 8 16 0 -2
BITMAP
00
00
00
00
00
38
38
00
00
00
00
38
38
18
10
30
ENDCHAR
STARTCHAR less
ENCODING 60
SWIDTH 480 0
DWIDTH 8 0
BBX 8 16 0 -2
BITMAP
02
04
04
08
08
10
10
20
20
10
10
08
08
04
04
02
ENDCHAR
STARTCHAR equal
ENCODING 61
SWIDTH 480 0
DWIDTH 8 0
BBX 8 16 0 -2
BITMAP
00
00
00
00
00
FE
00
00
00
FE
00
00
00
00
00
00
ENDCHAR
STARTCHAR greater
ENCODING 62
SWIDTH 480 0
DWIDTH 8 0
BBX 8 16 0 -2
BITMAP
80
40
40
20
20
10
10
08
08
10
10
20
20
40
40
80
ENDCHAR
STARTCHAR question
ENCODING 63
SWIDTH 480 0
DWIDTH 8 0
BBX 8 16 0 -2
BITMAP
00
38
44
82
C2
02
04
04
08
10
10
00
00
10
38
10
ENDCHAR
STARTCHAR at
ENCODING 64
SWIDTH 480 0
DWIDTH 8 0
BBX 8 16 0 -2
BITMAP
00
3C
42
82
9A
A6
A2
A2
A2
A6
9A
80
42
3C
00
00
ENDCHAR
STARTCHAR A
ENCODING 65
SWIDTH 480 0
DWIDTH 8 0
BBX 8 16 0 -2
BITMAP
00
10
28
28
28
44
44
44
44
7C
82
82
82
C6
00
00
ENDCHAR
STARTCHAR B
ENCODING 66
SWIDTH 480 0
DWIDTH 8 0
BBX 8 16 0 -2
BITMAP
00
F8
44
42
42
42
44
78
44
42
42
42
42
FC
00
00
ENDCHAR
STARTCHAR C
ENCODING 67
SWIDTH 480 0
DWIDTH 8 0
BBX 8 16 0 -2
BITMAP
00
3A
46
42
80
80
80
80
80
80
82
42
42
3C
00
00
ENDCHAR
STARTCHAR D
ENCODING 68
SWIDTH 480 0
DWIDTH 8 0
BBX 8 16 0 -2
BITMAP
00
F8
44
44
42
42
42
42
42
42
42
44
44
F8
00
00
ENDCHAR
STARTCHAR E
ENCODING 69
SWIDTH 480 0
DWIDTH 8 0
BBX 8 16 0 -2
BITMAP
00
FE
42
42
40
48
48
78
48
48
42
42
42
FE
00
00
ENDCHAR
STARTCHAR F
ENCODING 70
SWIDTH 480 0
DWIDTH 8 0
BBX 8 16 0 -2
BITMAP
00
FE
42
42
40
48
48
78
48
48
40
40
40
F0
00
00
ENDCHAR
STARTCHAR G
ENCODING 71
SWIDTH 480 0
DWIDTH 8 0
BBX 8 16 0 -2
BITMAP
00
1A
26
42
40
80
80
8F
82
82
82
42
66
1A
00
00
ENDCHAR
STARTCHAR H
ENCODING 72
SWIDTH 480 0
DWIDTH 8 0
BBX 8 16 0 -2
BITMAP
00
E7
42
42
42
42
7E
42
42
42
42
42
42
E7
00
00
ENDCHAR
STARTCHAR I
ENCODING 73
SWIDTH 480 0
DWIDTH 8 0
BBX 8 16 0 -2
BITMAP
00
FE
10
10
10
10
10
10
10
10
10
10
10
FE
00
00
ENDCHAR
STARTCHAR J
ENCODING 74
SWIDTH 480 0
DWIDTH 8 0
BBX 8 16 0 -2
BITMAP
00
1F
02
02
02
02
02
02
02
82
82
82
44
38
00
00
ENDCHAR
STARTCHAR K
ENCODING 75
SWIDTH 480 0
DWIDTH 8 0
BBX 8 16 0 -2
BITMAP
00
E6
44
44
48
48
70
50
48
48
44
44
42
E3
00
00
ENDCHAR
STARTCHAR L
ENCODING 76
SWIDTH 480 0
DWIDTH 8 0
BBX 8 16 0 -2
BITMAP
00
F0
40
40
40
40
40
40
40
40
42
42
42
FE
00
00
ENDCHAR
STARTCHAR M
ENCODING 77
SWIDTH 480 0
DWIDTH 8 0
BBX 8 16 0 -2
BITMAP
00
82
C6
AA
AA
AA
92
92
92
82
82
82
82
C6
00
00
ENDCHAR
STARTCHAR N
ENCODING 78
SWIDTH 480 0
DWIDTH 8 0
BBX 8 16 0 -2
BITMAP
00
87
C2
A2
A2
A2
92
92
92
8A
8A
8A
86
C2
00
00
ENDCHAR
STARTCHAR O
ENCODING 79
SWIDTH 480 0
DWIDTH 8 0
BBX 8 16 0 -2
BITMAP
00
38
44
82
82
82
82
82
82
82
82
82
44
38
00
00
ENDCHAR
STARTCHAR P
ENCODING 80
SWIDTH 480 0
DWIDTH 8 0
BBX 8 16 0 -2
BITMAP
00
F8
44
42
42
42
42
44
78
40
40
40
40
F0
00
00
ENDCHAR
STARTCHAR Q
ENCODING 81
SWIDTH 480 0
DWIDTH 8 0
BBX 8 16 0 -2
BITMAP
00
38
44
44
82
82
82
82
82
82
BA
44
44
38
08
06
ENDCHAR
STARTCHAR R
ENCODING 82
SWIDTH 480 0
DWIDTH 8 0
BBX 8 16 0 -2
BITMAP
00
F8
44
42
42
42
44
78
48
44
44
44
42
E3
00
00
ENDCHAR
STARTCHAR S
ENCODING 83
SWIDTH 480 0
DWIDTH 8 0
BBX 8 16 0 -2
BITMAP
00
34
4C
84
80
80
60
18
04
82
82
82
C4
B8
00
00
ENDCHAR
STARTCHAR T
ENCODING 84
SWIDTH 480 0
DWIDTH 8 0
BBX 8 16 0 -2
BITMAP
00
FE
92
92
10
10
10
10
10
10
10
10
10
7C
00
00
ENDCHAR
STARTCHAR U
ENCODING 85
SWIDTH 480 0
DWIDTH 8 0
BBX 8 16 0 -2
BITMAP
00
E7
42
42
42
42
42
42
42
42
42
42
42
3C
00
00
ENDCHAR
STARTCHAR V
ENCODING 86
SWIDTH 480 0
DWIDTH 8 0
BBX 8 16 0 -2
BITMAP
00
C6
82
82
82
82
44
44
44
44
28
28
10
10
00
00
ENDCHAR
STARTCHAR W
ENCODING 87
SWIDTH 480 0
DWIDTH 8 0
BBX 8 16 0 -2
BITMAP
00
C6
82
82
82
92
92
92
AA
AA
AA
44
44
44
00
00
ENDCHAR
STARTCHAR X
ENCODING 88
SWIDTH 480 0
DWIDTH 8 0
BBX 8 16 0 -2
BITMAP
00
EE
44
44
28
28
10
28
28
28
44
44
82
C6
00
00
ENDCHAR
STARTCHAR Y
ENCODING 89
SWIDTH 480 0
DWIDTH 8 0
BBX 8 16 0 -2
BITMAP
00
C6
82
44
44
44
28
28
10
10
10
10
10
7C
00
00
ENDCHAR
STARTCHAR Z
ENCODING 90
SWIDTH 480 0
DWIDTH 8 0
BBX 8 16 0 -2
BITMAP
00
FE
84
88
08
10
10
10
20
20
42
42
82
FE
00
00
ENDCHAR
STARTCHAR bracketleft
ENCODING 91
SWIDTH 480 0
DWIDTH 8 0
BBX 8 16 0 -2
BITMAP
1E
10
10
10
10
10
10
10
10
10
10
10
10
10
10
1E
ENDCHAR
STARTCHAR backslash
ENCODING 92
SWIDTH 480 0
DWIDTH 8 0
BBX 8 16 0 -2
BITMAP
00
80
80
40
40
20
20
10
10
08
08
04
04
02
02
00
ENDCHAR
STARTCHAR bracketright
ENCODING 93
SWIDTH 480 0
DWIDTH 8 0
BBX 8 16 0 -2
BITMAP
F0
10
10
10
10
10
10
10
10
10
10
10
10
10
10
F0
ENDCHAR
STARTCHAR asciicircum
ENCODING 94
SWIDTH 480 0
DWIDTH 8 0
BBX 8 16 0 -2
BITMAP
10
28
44
82
00
00
00
00
00
00
00
00
00
00
00
00
ENDCHAR
STARTCHAR underscore
ENCODING 95
SWIDTH 480 0
DWIDTH 8 0
BBX 8 16 0 -2
BITMAP
00
00
00
00
00
00
00
00
00
00
00
00
00
00
00
FE
ENDCHAR
STARTCHAR grave
ENCODING 96
SWIDTH 480 0
DWIDTH 8 0
BBX 8 16 0 -2
BITMAP
00
30
18
0C
00
00
00
00
00
00
00
00
00
00
00
00
ENDCHAR
STARTCHAR a
ENCODING 97
SWIDTH 480 0
DWIDTH 8 0
BBX 8 16 0 -2
BITMAP
00
00
00
00
00
3C
42
02
3E
42
82
82
86
7B
00
00
ENDCHAR
STARTCHAR b
ENCODING 98
SWIDTH 480 0
DWIDTH 8 0
BBX 8 16 0 -2
BITMAP
00
C0
40
40
40
78
44
42
42
42
42
42
44
78
00
00
ENDCHAR
STARTCHAR c
ENCODING 99
SWIDTH 480 0
DWIDTH 8 0
BBX 8 16 0 -2
BITMAP
00
00
00
00
00
3A
46
82
80
80
80
82
42
3C
00
00
ENDCHAR
STARTCHAR d
ENCODING 100
SWIDTH 480 0
DWIDTH 8 0
BBX 8 16 0 -2
BITMAP
00
06
04
04
04
3C
44
84
84
84
84
84
44
3E
00
00
ENDCHAR
STARTCHAR e
ENCODING 101
SWIDTH 480 0
DWIDTH 8 0
BBX 8 16 0 -2
BITMAP
00
00
00
00
00
38
44
82
FE
80
80
82
42
3C
00
00
ENDCHAR
STARTCHAR f
ENCODING 102
SWIDTH 480 0
DWIDTH 8 0
BBX 8 16 0 -2
BITMAP
00
0E
11
10
10
FE
10
10
10
10
10
10
10
7C
00
00
ENDCHAR
STARTCHAR g
ENCODING 103
SWIDTH 480 0
DWIDTH 8 0
BBX 8 16 0 -2
BITMAP
00
00
00
00
00
3B
44
44
44
38
40
78
84
82
82
7C
ENDCHAR
STARTCHAR h
ENCODING 104
SWIDTH 480 0
DWIDTH 8 0
BBX 8 16 0 -2
BITMAP
00
C0
40
40
40
5C
62
42
42
42
42
42
42
E7
00
00
ENDCHAR
STARTCHAR i
ENCODING 105
SWIDTH 480 0
DWIDTH 8 0
BBX 8 16 0 -2
BITMAP
18
18
00
00
00
78
08
08
08
08
08
08
08
FF
00
00
ENDCHAR
STARTCHAR j
ENCODING 106
SWIDTH 480 0
DWIDTH 8 0
BBX 8 16 0 -2
BITMAP
06
06
00
00
00
3E
02
02
02
02
02
02
82
82
44
38
ENDCHAR
STARTCHAR k
ENCODING 107
SWIDTH 480 0
DWIDTH 8 0
BBX 8 16 0 -2
BITMAP
00
C0
40
40
40
42
44
48
58
64
44
42
42
E3
00
00
ENDCHAR
STARTCHAR l
ENCODING 108
SWIDTH 480 0
DWIDTH 8 0
BBX 8 16 0 -2
BITMAP
00
78
08
08
08
08
08
08
08
08
08
08
08
FF
00
00
ENDCHAR
STARTCHAR m
ENCODING 109
SWIDTH 480 0
DWIDTH 8 0
BBX 8 16 0 -2
BITMAP
00
00
00
00
00
6C
92
92
92
92
92
92
92
DB
00
00
ENDCHAR
STARTCHAR n
ENCODING 110
SWIDTH 480 0
DWIDTH 8 0
BBX 8 16 0 -2
BITMAP
00
00
00
00
00
DC
62
42
42
42
42
42
42
E7
00
00
ENDCHAR
STARTCHAR o
ENCODING 111
SWIDTH 480 0
DWIDTH 8 0
BBX 8 16 0 -2
BITMAP
00
00
00
00
00
38
44
82
82
82
82
82
44
38
00
00
ENDCHAR
STARTCHAR p
ENCODING 112
SWIDTH 480 0
DWIDTH 8 0
BBX 8 16 0 -2
BITMAP
00
00
00
00
00
F8
44
42
42
42
42
44
78
40
40
F0
ENDCHAR
STARTCHAR q
ENCODING 113
SWIDTH 480 0
DWIDTH 8 0
BBX 8 16 0 -2
BITMAP
00
00
00
00
00
3E
44
84
84
84
84
44
3C
04
04
1E
ENDCHAR
STARTCHAR r
ENCODING 114
SWIDTH 480 0
DWIDTH 8 0
BBX 8 16 0 -2
BITMAP
00
00
00
00
00
EC
32
22
20
20
20
20
20
FC
00
00
ENDCHAR
STARTCHAR s
ENCODING 115
SWIDTH 480 0
DWIDTH 8 0
BBX 8 16 0 -2
BITMAP
00
00
00
00
00
3A
46
42
40
3C
02
82
C2
BC
00
00
ENDCHAR
STARTCHAR t
ENCODING 116
SWIDTH 480 0
DWIDTH 8 0
BBX 8 16 0 -2
BITMAP
00
00
20
20
20
FC
20
20
20
20
20
22
22
1C
00
00
ENDCHAR
STARTCHAR u
ENCODING 117
SWIDTH 480 0
DWIDTH 8 0
BBX 8 16 0 -2
BITMAP
00
00
00
00
00
C6
42
42
42
42
42
42
46
39
00
00
ENDCHAR
STARTCHAR v
ENCODING 118
SWIDTH 480 0
DWIDTH 8 0
BBX 8 16 0 -2
BITMAP
00
00
00
00
00
C6
82
82
44
44
44
28
28
10
00
00
ENDCHAR
STARTCHAR w
ENCODING 119
SWIDTH 480 0
DWIDTH 8 0
BBX 8 16 0 -2
BITMAP
00
00
00
00
00
92
92
92
92
AA
AA
44
44
44
00
00
ENDCHAR
STARTCHAR x
ENCODING 120
SWIDTH 480 0
DWIDTH 8 0
BBX 8 16 0 -2
BITMAP
00
00
00
00
00
EE
44
28
28
10
28
28
44
EE
00
00
ENDCHAR
STARTCHAR y
ENCODING 121
SWIDTH 480 0
DWIDTH 8 0
BBX 8 16 0 -2
BITMAP
00
00
00
00
00
E7
42
22
24
14
08
08
10
90
A0
40
ENDCHAR
STARTCHAR z
ENCODING 122
SWIDTH 480 0
DWIDTH 8 0
BBX 8 16 0 -2
BITMAP
00
00
00
00
00
7E
44
08
08
10
10
22
42
FE
00
00
ENDCHAR
STARTCHAR braceleft
ENCODING 123
SWIDTH 480 0
DWIDTH 8 0
BBX 8 16 0 -2
BITMAP
06
08
08
08
08
08
10
20
10
08
08
08
08
08
08
06
ENDCHAR
STARTCHAR bar
ENCODING 124
SWIDTH 480 0
DWIDTH 8 0
BBX 8 16 0 -2
BITMAP
10
10
10
10
10
10
10
10
10
10
10
10
10
10
10
10
ENDCHAR
STARTCHAR braceright
ENCODING 125
SWIDTH 480 0
DWIDTH 8 0
BBX 8 16 0 -2
BITMAP
C0
20
20
20
20
20
10
08
10
20
20
20
20
20
20
C0
ENDCHAR
STARTCHAR asciitilde
ENCODING 126
SWIDTH 480 0
DWIDTH 8 0
BBX 8 16 0 -2
BITMAP
60
92
0C
00
00
00
00
00
00
00
00
00
00
00
00
00
ENDCHAR
STARTCHAR space
ENCODING 160
SWIDTH 480 0
DWIDTH 8 0
BBX 8 16 0 -2
BITMAP
00
00
00
00
00
00
00
00
00
00
00
00
00
00
00
00
ENDCHAR
STARTCHAR exclamdown
ENCODING 161
SWIDTH 480 0
DWIDTH 8 0
BBX 8 16 0 -2
BITMAP
00
10
38
10
00
00
10
10
10
10
38
38
38
38
38
38
ENDCHAR
STARTCHAR cent
ENCODING 162
SWIDTH 480 0
DWIDTH 8 0
BBX 8 16 0 -2
BITMAP
00
00
10
3C
52
92
90
90
90
90
90
92
52
3C
10
00
ENDCHAR
STARTCHAR sterling
ENCODING 163
SWIDTH 480 0
DWIDTH 8 0
BBX 8 16 0 -2
BITMAP
00
00
00
00
0C
12
10
10
10
7C
10
10
3C
52
20
00
ENDCHAR
STARTCHAR currency
ENCODING 164
SWIDTH 480 0
DWIDTH 8 0
BBX 8 16 0 -2
BITMAP
00
00
00
00
00
42
3C
24
24
3C
42
00
00
00
00
00
ENDCHAR
STARTCHAR yen
ENCODING 165
SWIDTH 480 0
DWIDTH 8 0
BBX 8 16 0 -2
BITMAP
82
82
44
44
FE
28
10
FE
10
10
10
10
10
38
00
00
ENDCHAR
STARTCHAR brokenbar
ENCODING 166
SWIDTH 480 0
DWIDTH 8 0
BBX 8 16 0 -2
BITMAP
00
10
10
10
10
10
00
00
00
10
10
10
10
10
00
00
ENDCHAR
STARTCHAR section
ENCODING 167
SWIDTH 480 0
DWIDTH 8 0
BBX 8 16 0 -2
BITMAP
00
3C
42
40
20
3C
42
42
42
3C
04
02
42
3C
00
00
ENDCHAR
STARTCHAR dieresis
ENCODING 168
SWIDTH 480 0
DWIDTH 8 0
BBX 8 16 0 -2
BITMAP
00
24
24
24
00
00
00
00
00
00
00
00
00
00
00
00
ENDCHAR
STARTCHAR copyright
ENCODING 169
SWIDTH 480 0
DWIDTH 8 0
BBX 8 16 0 -2
BITMAP
00
3C
42
99
A5
C3
C1
C1
C1
C3
A5
99
42
3C
00
00
ENDCHAR
STARTCHAR ordfeminine
ENCODING 170
SWIDTH 480 0
DWIDTH 8 0
BBX 8 16 0 -2
BITMAP
00
1C
22
1E
22
26
1A
00
3E
00
00
00
00
00
00
00
ENDCHAR
STARTCHAR guillemotleft
ENCODING 171
SWIDTH 480 0
DWIDTH 8 0
BBX 8 16 0 -2
BITMAP
00
00
00
09
12
24
48
90
90
48
24
12
09
00
00
00
ENDCHAR
STARTCHAR logicalnot
ENCODING 172
SWIDTH 480 0
DWIDTH 8 0
BBX 8 16 0 -2
BITMAP
00
00
00
00
00
00
00
FE
FE
06
06
00
00
00
00
00
ENDCHAR
STARTCHAR hyphen
ENCODING 173
SWIDTH 480 0
DWIDTH 8 0
BBX 8 16 0 -2
BITMAP
00
00
00
00
00
00
00
FE
FE
00
00
00
00
00
00
00
ENDCHAR
STARTCHAR registered
ENCODING 174
SWIDTH 480 0
DWIDTH 8 0
BBX 8 16 0 -2
BITMAP
00
3C
42
81
F9
C5
C5
F9
C5
C5
C5
81
42
3C
00
00
ENDCHAR
STARTCHAR macron
ENCODING 175
SWIDTH 480 0
DWIDTH 8 0
BBX 8 16 0 -2
BITMAP
00
00
FE
00
00
00
00
00
00
00
00
00
00
00
00
00
ENDCHAR
STARTCHAR degree
ENCODING 176
SWIDTH 480 0
DWIDTH 8 0
BBX 8 16 0 -2
BITMAP
00
38
44
44
44
38
00
00
00
00
00
00
00
00
00
00
ENDCHAR
STARTCHAR plusminus
ENCODING 177
SWIDTH 480 0
DWIDTH 8 0
BBX 8 16 0 -2
BITMAP
00
00
00
00
10
10
10
FE
10
10
10
00
FE
00
00
00
ENDCHAR
STARTCHAR twosuperior
ENCODING 178
SWIDTH 480 0
DWIDTH 8 0
BBX 8 16 0 -2
BITMAP
00
18
24
04
08
10
20
3C
00
00
00
00
00
00
00
00
ENDCHAR
STARTCHAR threesuperior
ENCODING 179
SWIDTH 480 0
DWIDTH 8 0
BBX 8 16 0 -2
BITMAP
00
18
24
04
18
04
24
18
00
00
00
00
00
00
00
00
ENDCHAR
STARTCHAR acute
ENCODING 180
SWIDTH 480 0
DWIDTH 8 0
BBX 8 16 0 -2
BITMAP
00
0C
18
30
00
00
00
00
00
00
00
00
00
00
00
00
ENDCHAR
STARTCHAR mu
ENCODING 181
SWIDTH 480 0
DWIDTH 8 0
BBX 8 16 0 -2
BITMAP
00
00
00
00
00
00
00
22
22
22
44
44
6C
54
82
80
ENDCHAR
STARTCHAR paragraph
ENCODING 182
SWIDTH 480 0
DWIDTH 8 0
BBX 8 16 0 -2
BITMAP
00
7F
FA
FA
FA
FA
FA
7A
0A
0A
0A
0A
0A
1B
00
00
ENDCHAR
STARTCHAR periodcentered
ENCODING 183
SWIDTH 480 0
DWIDTH 8 0
BBX 8 16 0 -2
BITMAP
00
00
00
00
00
00
18
18
00
00
00
00
00
00
00
00
ENDCHAR
STARTCHAR cedilla
ENCODING 184
SWIDTH 480 0
DWIDTH 8 0
BBX 8 16 0 -2
BITMAP
00
00
00
00
00
00
00
00
00
00
00
00
00
0C
08
10
ENDCHAR
STARTCHAR onesuperior
ENCODING 185
SWIDTH 480 0
DWIDTH 8 0
BBX 8 16 0 -2
BITMAP
00
08
18
28
08
08
08
08
00
00
00
00
00
00
00
00
ENDCHAR
STARTCHAR ordmasculine
ENCODING 186
SWIDTH 480 0
DWIDTH 8 0
BBX 8 16 0 -2
BITMAP
00
18
24
24
24
24
18
00
3C
00
00
00
00
00
00
00
ENDCHAR
STARTCHAR guillemotright
ENCODING 187
SWIDTH 480 0
DWIDTH 8 0
BBX 8 16 0 -2
BITMAP
00
00
00
00
90
48
24
12
09
09
12
24
48
90
00
00
ENDCHAR
STARTCHAR onequarter
ENCODING 188
SWIDTH 480 0
DWIDTH 8 0
BBX 8 16 0 -2
BITMAP
00
40
C0
40
40
41
46
08
32
C6
0A
12
1F
02
00
00
ENDCHAR
STARTCHAR onehalf
ENCODING 189
SWIDTH 480 0
DWIDTH 8 0
BBX 8 16 0 -2
BITMAP
00
40
C0
40
40
41
46
08
36
C9
01
06
08
0F
00
00
ENDCHAR
STARTCHAR threequarters
ENCODING 190
SWIDTH 480 0
DWIDTH 8 0
BBX 8 16 0 -2
BITMAP
00
60
90
10
60
11
96
68
32
C6
0A
12
1F
02
00
00
ENDCHAR
STARTCHAR questiondown
ENCODING 191
SWIDTH 480 0
DWIDTH 8 0
BBX 8 16 0 -2
BITMAP
08
1C
08
00
08
08
08
10
20
20
40
43
41
22
1C
00
ENDCHAR
STARTCHAR Agrave
ENCODING 192
SWIDTH 480 0
DWIDTH 8 0
BBX 8 16 0 -2
BITMAP
30
10
08
10
28
28
44
44
44
7c
82
82
82
c6
00
00
ENDCHAR
STARTCHAR Aacute
ENCODING 193
SWIDTH 480 0
DWIDTH 8 0
BBX 8 16 0 -2
BITMAP
18
10
20
10
28
28
44
44
44
7c
82
82
82
c6
00
00
ENDCHAR
STARTCHAR Acircumflex
ENCODING 194
SWIDTH 480 0
DWIDTH 8 0
BBX 8 16 0 -2
BITMAP
10
28
44
10
28
28
44
44
44
7c
82
82
82
c6
00
00
ENDCHAR
STARTCHAR Atilde
ENCODING 195
SWIDTH 480 0
DWIDTH 8 0
BBX 8 16 0 -2
BITMAP
24
58
00
10
28
28
44
44
44
7c
82
82
82
c6
00
00
ENDCHAR
STARTCHAR Adieresis
ENCODING 196
SWIDTH 480 0
DWIDTH 8 0
BBX 8 16 0 -2
BITMAP
44
44
00
10
28
28
44
44
44
7c
82
82
82
c6
00
00
ENDCHAR
STARTCHAR Aring
ENCODING 197
SWIDTH 480 0
DWIDTH 8 0
BBX 8 16 0 -2
BITMAP
38
44
38
10
28
28
44
44
44
7c
82
82
82
c6
00
00
ENDCHAR
STARTCHAR AE
ENCODING 198
SWIDTH 480 0
DWIDTH 8 0
BBX 8 16 0 -2
BITMAP
00
00
1f
28
28
48
48
48
4e
f8
88
88
88
8f
00
00
ENDCHAR
STARTCHAR Ccedilla
ENCODING 199
SWIDTH 480 0
DWIDTH 8 0
BBX 8 16 0 -2
BITMAP
00
3c
42
40
80
80
80
80
80
80
40
42
3c
08
08
10
ENDCHAR
STARTCHAR Egrave
ENCODING 200
SWIDTH 480 0
DWIDTH 8 0
BBX 8 16 0 -2
BITMAP
30
10
08
fe
42
42
40
48
78
48
40
42
42
fe
00
00
ENDCHAR
STARTCHAR Eacute
ENCODING 201
SWIDTH 480 0
DWIDTH 8 0
BBX 8 16 0 -2
BITMAP
18
10
20
fe
42
42
40
48
78
48
40
42
42
fe
00
00
ENDCHAR
STARTCHAR Ecircumflex
ENCODING 202
SWIDTH 480 0
DWIDTH 8 0
BBX 8 16 0 -2
BITMAP
30
48
00
fe
42
42
40
48
78
48
40
42
42
fe
00
00
ENDCHAR
STARTCHAR Edieresis
ENCODING 203
SWIDTH 480 0
DWIDTH 8 0
BBX 8 16 0 -2
BITMAP
44
44
00
fe
42
42
40
48
78
48
40
42
42
fe
00
00
ENDCHAR
STARTCHAR Igrave
ENCODING 204
SWIDTH 480 0
DWIDTH 8 0
BBX 8 16 0 -2
BITMAP
30
10
08
fe
10
10
10
10
10
10
10
10
10
fe
00
00
ENDCHAR
STARTCHAR Iacute
ENCODING 205
SWIDTH 480 0
DWIDTH 8 0
BBX 8 16 0 -2
BITMAP
18
10
20
fe
10
10
10
10
10
10
10
10
10
fe
00
00
ENDCHAR
STARTCHAR Icircumflex
ENCODING 206
SWIDTH 480 0
DWIDTH 8 0
BBX 8 16 0 -2
BITMAP
10
28
44
fe
10
10
10
10
10
10
10
10
10
fe
00
00
ENDCHAR
STARTCHAR Idieresis
ENCODING 207
SWIDTH 480 0
DWIDTH 8 0
BBX 8 16 0 -2
BITMAP
44
44
00
fe
10
10
10
10
10
10
10
10
10
fe
00
00
ENDCHAR
STARTCHAR Eth
ENCODING 208
SWIDTH 480 0
DWIDTH 8 0
BBX 8 16 0 -2
BITMAP
00
f8
44
44
42
42
42
f2
42
42
42
44
44
f8
00
00
ENDCHAR
STARTCHAR Ntilde
ENCODING 209
SWIDTH 480 0
DWIDTH 8 0
BBX 8 16 0 -2
BITMAP
24
58
00
87
c2
a2
a2
92
92
92
8a
8a
86
c2
00
00
ENDCHAR
STARTCHAR Ograve
ENCODING 210
SWIDTH 480 0
DWIDTH 8 0
BBX 8 16 0 -2
BITMAP
30
10
08
38
44
82
82
82
82
82
82
82
44
38
00
00
ENDCHAR
STARTCHAR Oacute
ENCODING 211
SWIDTH 480 0
DWIDTH 8 0
BBX 8 16 0 -2
BITMAP
18
10
20
38
44
82
82
82
82
82
82
82
44
38
00
00
ENDCHAR
STARTCHAR Ocircumflex
ENCODING 212
SWIDTH 480 0
DWIDTH 8 0
BBX 8 16 0 -2
BITMAP
38
44
00
38
44
82
82
82
82
82
82
82
44
38
00
00
ENDCHAR
STARTCHAR Otilde
ENCODING 213
SWIDTH 480 0
DWIDTH 8 0
BBX 8 16 0 -2
BITMAP
24
58
00
38
44
82
82
82
82
82
82
82
44
38
00
00
ENDCHAR
STARTCHAR Odieresis
ENCODING 214
SWIDTH 480 0
DWIDTH 8 0
BBX 8 16 0 -2
BITMAP
44
44
00
38
44
82
82
82
82
82
82
82
44
38
00
00
ENDCHAR
STARTCHAR multiply
ENCODING 215
SWIDTH 480 0
DWIDTH 8 0
BBX 8 16 0 -2
BITMAP
00
00
00
00
81
42
24
18
18
24
42
81
00
00
00
00
ENDCHAR
STARTCHAR Oslash
ENCODING 216
SWIDTH 480 0
DWIDTH 8 0
BBX 8 16 0 -2
BITMAP
02
02
3c
44
86
8a
8a
92
92
a2
a2
c2
44
78
80
80
ENDCHAR
STARTCHAR Ugrave
ENCODING 217
SWIDTH 480 0
DWIDTH 8 0
BBX 8 16 0 -2
BITMAP
30
10
08
e7
42
42
42
42
42
42
42
42
42
3c
00
00
ENDCHAR
STARTCHAR Uacute
ENCODING 218
SWIDTH 480 0
DWIDTH 8 0
BBX 8 16 0 -2
BITMAP
0c
08
10
e7
42
42
42
42
42
42
42
42
42
3c
00
00
ENDCHAR
STARTCHAR Ucircumflex
ENCODING 219
SWIDTH 480 0
DWIDTH 8 0
BBX 8 16 0 -2
BITMAP
18
24
00
e7
42
42
42
42
42
42
42
42
42
3c
00
00
ENDCHAR
STARTCHAR Udieresis
ENCODING 220
SWIDTH 480 0
DWIDTH 8 0
BBX 8 16 0 -2
BITMAP
24
24
00
e7
42
42
42
42
42
42
42
42
42
3c
00
00
ENDCHAR
STARTCHAR Yacute
ENCODING 221
SWIDTH 480 0
DWIDTH 8 0
BBX 8 16 0 -2
BITMAP
0c
08
10
c6
82
44
44
28
28
10
10
10
10
7c
00
00
ENDCHAR
STARTCHAR Thorn
ENCODING 222
SWIDTH 480 0
DWIDTH 8 0
BBX 8 16 0 -2
BITMAP
e0
40
78
44
42
42
42
44
78
40
40
40
40
f0
00
00
ENDCHAR
STARTCHAR germandbls
ENCODING 223
SWIDTH 480 0
DWIDTH 8 0
BBX 8 16 0 -2
BITMAP
00
38
44
82
82
82
84
98
84
82
82
82
82
9c
00
00
ENDCHAR
STARTCHAR agrave
ENCODING 224
SWIDTH 480 0
DWIDTH 8 0
BBX 8 16 0 -2
BITMAP
00
30
10
08
00
3c
42
02
3e
42
82
82
86
7b
00
00
ENDCHAR
STARTCHAR aacute
ENCODING 225
SWIDTH 480 0
DWIDTH 8 0
BBX 8 16 0 -2
BITMAP
00
18
10
20
00
3c
42
02
3e
42
82
82
86
7b
00
00
ENDCHAR
STARTCHAR acircumflex
ENCODING 226
SWIDTH 480 0
DWIDTH 8 0
BBX 8 16 0 -2
BITMAP
00
18
24
42
00
3c
42
02
3e
42
82
82
86
7b
00
00
ENDCHAR
STARTCHAR atilde
ENCODING 227
SWIDTH 480 0
DWIDTH 8 0
BBX 8 16 0 -2
BITMAP
00
32
4c
00
00
3c
42
02
3e
42
82
82
86
7b
00
00
ENDCHAR
STARTCHAR adieresis
ENCODING 228
SWIDTH 480 0
DWIDTH 8 0
BBX 8 16 0 -2
BITMAP
00
00
24
24
00
3c
42
02
3e
42
82
82
86
7b
00
00
ENDCHAR
STARTCHAR aring
ENCODING 229
SWIDTH 480 0
DWIDTH 8 0
BBX 8 16 0 -2
BITMAP
00
18
24
18
00
3c
42
02
3e
42
82
82
86
7b
00
00
ENDCHAR
STARTCHAR ae
ENCODING 230
SWIDTH 480 0
DWIDTH 8 0
BBX 8 16 0 -2
BITMAP
00
00
00
00
00
6c
92
12
3e
50
90
92
92
6c
00
00
ENDCHAR
STARTCHAR ccedilla
ENCODING 231
SWIDTH 480 0
DWIDTH 8 0
BBX 8 16 0 -2
BITMAP
00
00
00
00
3a
46
82
80
80
80
82
42
3c
10
10
20
ENDCHAR
STARTCHAR egrave
ENCODING 232
SWIDTH 480 0
DWIDTH 8 0
BBX 8 16 0 -2
BITMAP
00
30
10
08
00
38
44
82
fe
80
80
82
42
3c
00
00
ENDCHAR
STARTCHAR eacute
ENCODING 233
SWIDTH 480 0
DWIDTH 8 0
BBX 8 16 0 -2
BITMAP
00
18
10
20
00
38
44
82
fe
80
80
82
42
3c
00
00
ENDCHAR
STARTCHAR ecircumflex
ENCODING 234
SWIDTH 480 0
DWIDTH 8 0
BBX 8 16 0 -2
BITMAP
00
38
44
82
00
38
44
82
fe
80
80
82
42
3c
00
00
ENDCHAR
STARTCHAR edieresis
ENCODING 235
SWIDTH 480 0
DWIDTH 8 0
BBX 8 16 0 -2
BITMAP
00
44
44
00
00
38
44
82
fe
80
80
80
44
38
00
00
ENDCHAR
STARTCHAR igrave
ENCODING 236
SWIDTH 480 0
DWIDTH 8 0
BBX 8 16 0 -2
BITMAP
00
30
10
08
00
78
08
08
08
08
08
08
08
ff
00
00
ENDCHAR
STARTCHAR iacute
ENCODING 237
SWIDTH 480 0
DWIDTH 8 0
BBX 8 16 0 -2
BITMAP
00
18
10
20
00
78
08
08
08
08
08
08
08
ff
00
00
ENDCHAR
STARTCHAR icircumflex
ENCODING 238
SWIDTH 480 0
DWIDTH 8 0
BBX 8 16 0 -2
BITMAP
00
18
24
42
00
78
08
08
08
08
08
08
08
ff
00
00
ENDCHAR
STARTCHAR idieresis
ENCODING 239
SWIDTH 480 0
DWIDTH 8 0
BBX 8 16 0 -2
BITMAP
00
24
24
00
00
78
08
08
08
08
08
08
08
ff
00
00
ENDCHAR
STARTCHAR eth
ENCODING 240
SWIDTH 480 0
DWIDTH 8 0
BBX 8 16 0 -2
BITMAP
00
64
18
18
24
3c
42
82
82
82
82
82
42
3c
00
00
ENDCHAR
STARTCHAR ntilde
ENCODING 241
SWIDTH 480 0
DWIDTH 8 0
BBX 8 16 0 -2
BITMAP
00
32
4c
00
00
dc
62
42
42
42
42
42
42
e7
00
00
ENDCHAR
STARTCHAR ograve
ENCODING 242
SWIDTH 480 0
DWIDTH 8 0
BBX 8 16 0 -2
BITMAP
00
30
10
08
00
38
44
82
82
82
82
82
44
38
00
00
ENDCHAR
STARTCHAR oacute
ENCODING 243
SWIDTH 480 0
DWIDTH 8 0
BBX 8 16 0 -2
BITMAP
00
18
10
20
00
38
44
82
82
82
82
82
44
38
00
00
ENDCHAR
STARTCHAR ocircumflex
ENCODING 244
SWIDTH 480 0
DWIDTH 8 0
BBX 8 16 0 -2
BITMAP
00
10
28
44
00
38
44
82
82
82
82
82
44
38
00
00
ENDCHAR
STARTCHAR otilde
ENCODING 245
SWIDTH 480 0
DWIDTH 8 0
BBX 8 16 0 -2
BITMAP
00
32
4c
00
00
38
44
82
82
82
82
82
44
38
00
00
ENDCHAR
STARTCHAR odieresis
ENCODING 246
SWIDTH 480 0
DWIDTH 8 0
BBX 8 16 0 -2
BITMAP
00
44
44
00
00
38
44
82
82
82
82
82
44
38
00
00
ENDCHAR
STARTCHAR divide
ENCODING 247
SWIDTH 480 0
DWIDTH 8 0
BBX 8 16 0 -2
BITMAP
00
00
00
00
00
10
10
00
fe
00
10
10
00
00
00
00
ENDCHAR
STARTCHAR oslash
ENCODING 248
SWIDTH 480 0
DWIDTH 8 0
BBX 8 16 0 -2
BITMAP
00
00
00
00
00
3a
44
8a
8a
92
a2
a2
44
b8
00
00
ENDCHAR
STARTCHAR ugrave
ENCODING 249
SWIDTH 480 0
DWIDTH 8 0
BBX 8 16 0 -2
BITMAP
00
30
10
08
00
c6
42
42
42
42
42
42
46
39
00
00
ENDCHAR
STARTCHAR uacute
ENCODING 250
SWIDTH 480 0
DWIDTH 8 0
BBX 8 16 0 -2
BITMAP
00
18
10
20
00
c6
42
42
42
42
42
42
46
39
00
00
ENDCHAR
STARTCHAR ucircumflex
ENCODING 251
SWIDTH 480 0
DWIDTH 8 0
BBX 8 16 0 -2
BITMAP
00
10
28
44
00
c6
42
42
42
42
42
42
46
39
00
00
ENDCHAR
STARTCHAR udieresis
ENCODING 252
SWIDTH 480 0
DWIDTH 8 0
BBX 8 16 0 -2
BITMAP
00
24
24
00
00
c6
42
42
42
42
42
42
46
39
00
00
ENDCHAR
STARTCHAR yacute
ENCODING 253
SWIDTH 480 0
DWIDTH 8 0
BBX 8 16 0 -2
BITMAP
00
0c
08
10
00
e7
42
22
24
14
08
08
10
90
a0
40
ENDCHAR
STARTCHAR thorn
ENCODING 254
SWIDTH 480 0
DWIDTH 8 0
BBX 8 16 0 -2
BITMAP
00
00
c0
40
40
78
44
42
42
42
42
44
78
40
40
f0
ENDCHAR
STARTCHAR ydieresis
ENCODING 255
SWIDTH 480 0
DWIDTH 8 0
BBX 8 16 0 -2
BITMAP
00
24
24
00
00
e7
42
22
24
14
08
08
10
90
a0
40
ENDCHAR
STARTCHAR uni0400
ENCODING 1024
SWIDTH 480 0
DWIDTH 8 0
BBX 8 16 0 -2
BITMAP
30
10
08
fe
42
42
40
48
78
48
40
42
42
fe
00
00
ENDCHAR
STARTCHAR afii10023
ENCODING 1025
SWIDTH 480 0
DWIDTH 8 0
BBX 8 16 0 -2
BITMAP
44
44
00
fe
42
42
40
48
78
48
40
42
42
fe
00
00
ENDCHAR
STARTCHAR afii10051
ENCODING 1026
SWIDTH 480 0
DWIDTH 8 0
BBX 8 16 0 -2
BITMAP
00
F8
C8
C8
40
40
58
64
42
42
42
42
42
E2
04
18
ENDCHAR
STARTCHAR afii10052
ENCODING 1027
SWIDTH 480 0
DWIDTH 8 0
BBX 8 16 0 -2
BITMAP
18
10
20
FE
42
42
42
40
40
40
40
40
40
F0
00
00
ENDCHAR
STARTCHAR afii10053
ENCODING 1028
SWIDTH 480 0
DWIDTH 8 0
BBX 8 16 0 -2
BITMAP
00
3A
46
42
80
80
80
F8
80
80
82
42
42
3C
00
00
ENDCHAR
STARTCHAR afii10054
ENCODING 1029
SWIDTH 480 0
DWIDTH 8 0
BBX 8 16 0 -2
BITMAP
00
34
4C
84
80
80
60
18
04
82
82
82
C4
B8
00
00
ENDCHAR
STARTCHAR afii10055
ENCODING 1030
SWIDTH 480 0
DWIDTH 8 0
BBX 8 16 0 -2
BITMAP
00
FE
10
10
10
10
10
10
10
10
10
10
10
FE
00
00
ENDCHAR
STARTCHAR afii10056
ENCODING 1031
SWIDTH 480 0
DWIDTH 8 0
BBX 8 16 0 -2
BITMAP
44
44
00
fe
10
10
10
10
10
10
10
10
10
fe
00
00
ENDCHAR
STARTCHAR afii10057
ENCODING 1032
SWIDTH 480 0
DWIDTH 8 0
BBX 8 16 0 -2
BITMAP
00
1F
02
02
02
02
02
02
02
82
82
82
44
38
00
00
ENDCHAR
STARTCHAR afii10058
ENCODING 1033
SWIDTH 480 0
DWIDTH 8 0
BBX 8 16 0 -2
BITMAP
00
F8
50
50
50
50
5C
52
52
52
52
52
D2
DC
00
00
ENDCHAR
STARTCHAR afii10059
ENCODING 1034
SWIDTH 480 0
DWIDTH 8 0
BBX 8 16 0 -2
BITMAP
00
B8
90
90
90
90
FC
92
92
92
92
92
92
DC
00
00
ENDCHAR
STARTCHAR afii10060
ENCODING 1035
SWIDTH 480 0
DWIDTH 8 0
BBX 8 16 0 -2
BITMAP
00
F8
C8
40
40
40
58
64
42
42
42
42
42
E7
00
00
ENDCHAR
STARTCHAR afii10061
ENCODING 1036
SWIDTH 480 0
DWIDTH 8 0
BBX 8 16 0 -2
BITMAP
18
10
20
E6
44
48
48
70
48
48
44
44
42
E3
00
00
ENDCHAR
STARTCHAR afii10062
ENCODING 1038
SWIDTH 480 0
DWIDTH 8 0
BBX 8 16 0 -2
BITMAP
44
44
BA
82
82
44
44
44
28
28
18
90
90
60
00
00
ENDCHAR
STARTCHAR afii10145
ENCODING 1039
SWIDTH 480 0
DWIDTH 8 0
BBX 8 16 0 -2
BITMAP
00
E7
42
42
42
42
42
42
42
42
42
42
42
FF
08
08
ENDCHAR
STARTCHAR afii10017
ENCODING 1040
SWIDTH 480 0
DWIDTH 8 0
BBX 8 16 0 -2
BITMAP
00
10
28
28
28
44
44
44
44
7C
82
82
82
C6
00
00
ENDCHAR
STARTCHAR afii10018
ENCODING 1041
SWIDTH 480 0
DWIDTH 8 0
BBX 8 16 0 -2
BITMAP
00
FE
42
42
40
40
78
44
42
42
42
42
44
F8
00
00
ENDCHAR
STARTCHAR afii10019
ENCODING 1042
SWIDTH 480 0
DWIDTH 8 0
BBX 8 16 0 -2
BITMAP
00
F8
44
42
42
42
44
78
44
42
42
42
42
FC
00
00
ENDCHAR
STARTCHAR afii10020
ENCODING 1043
SWIDTH 480 0
DWIDTH 8 0
BBX 8 16 0 -2
BITMAP
00
FE
42
42
42
40
40
40
40
40
40
40
40
F0
00
00
ENDCHAR
STARTCHAR afii10021
ENCODING 1044
SWIDTH 480 0
DWIDTH 8 0
BBX 8 16 0 -2
BITMAP
00
7F
22
22
22
22
22
22
22
22
22
42
42
FF
81
81
ENDCHAR
STARTCHAR afii10022
ENCODING 1045
SWIDTH 480 0
DWIDTH 8 0
BBX 8 16 0 -2
BITMAP
00
FE
42
42
40
48
48
78
48
48
42
42
42
FE
00
00
ENDCHAR
STARTCHAR afii10024
ENCODING 1046
SWIDTH 480 0
DWIDTH 8 0
BBX 8 16 0 -2
BITMAP
00
92
54
54
54
54
38
38
38
54
54
54
54
D6
00
00
ENDCHAR
STARTCHAR afii10025
ENCODING 1047
SWIDTH 480 0
DWIDTH 8 0
BBX 8 16 0 -2
BITMAP
00
B8
C4
82
02
02
04
38
04
02
02
82
82
7C
00
00
ENDCHAR
STARTCHAR afii10026
ENCODING 1048
SWIDTH 480 0
DWIDTH 8 0
BBX 8 16 0 -2
BITMAP
00
E7
42
46
46
4A
4A
4A
52
52
62
62
42
E7
00
00
ENDCHAR
STARTCHAR afii10027
ENCODING 1049
SWIDTH 480 0
DWIDTH 8 0
BBX 8 16 0 -2
BITMAP
24
24
DB
42
46
46
4A
4A
52
52
62
62
42
E7
00
00
ENDCHAR
STARTCHAR afii10028
ENCODING 1050
SWIDTH 480 0
DWIDTH 8 0
BBX 8 16 0 -2
BITMAP
00
E6
44
44
48
48
70
50
48
48
44
44
42
E3
00
00
ENDCHAR
STARTCHAR afii10029
ENCODING 1051
SWIDTH 480 0
DWIDTH 8 0
BBX 8 16 0 -2
BITMAP
00
7F
22
22
22
22
22
22
22
22
22
A2
A2
47
00
00
ENDCHAR
STARTCHAR afii10030
ENCODING 1052
SWIDTH 480 0
DWIDTH 8 0
BBX 8 16 0 -2
BITMAP
00
82
C6
AA
AA
AA
92
92
92
82
82
82
82
C6
00
00
ENDCHAR
STARTCHAR afii10031
ENCODING 1053
SWIDTH 480 0
DWIDTH 8 0
BBX 8 16 0 -2
BITMAP
00
E7
42
42
42
42
7E
42
42
42
42
42
42
E7
00
00
ENDCHAR
STARTCHAR afii10032
ENCODING 1054
SWIDTH 480 0
DWIDTH 8 0
BBX 8 16 0 -2
BITMAP
00
38
44
82
82
82
82
82
82
82
82
82
44
38
00
00
ENDCHAR
STARTCHAR afii10033
ENCODING 1055
SWIDTH 480 0
DWIDTH 8 0
BBX 8 16 0 -2
BITMAP
00
FF
42
42
42
42
42
42
42
42
42
42
42
E7
00
00
ENDCHAR
STARTCHAR afii10034
ENCODING 1056
SWIDTH 480 0
DWIDTH 8 0
BBX 8 16 0 -2
BITMAP
00
F8
44
42
42
42
42
44
78
40
40
40
40
F0
00
00
ENDCHAR
STARTCHAR afii10035
ENCODING 1057
SWIDTH 480 0
DWIDTH 8 0
BBX 8 16 0 -2
BITMAP
00
3A
46
42
80
80
80
80
80
80
82
42
42
3C
00
00
ENDCHAR
STARTCHAR afii10036
ENCODING 1058
SWIDTH 480 0
DWIDTH 8 0
BBX 8 16 0 -2
BITMAP
00
FE
92
92
10
10
10
10
10
10
10
10
10
7C
00
00
ENDCHAR
STARTCHAR afii10037
ENCODING 1059
SWIDTH 480 0
DWIDTH 8 0
BBX 8 16 0 -2
BITMAP
00
C6
82
82
82
44
44
44
28
28
18
90
90
60
00
00
ENDCHAR
STARTCHAR afii10038
ENCODING 1060
SWIDTH 480 0
DWIDTH 8 0
BBX 8 16 0 -2
BITMAP
00
38
10
38
54
92
92
92
92
92
54
38
10
38
00
00
ENDCHAR
STARTCHAR afii10039
ENCODING 1061
SWIDTH 480 0
DWIDTH 8 0
BBX 8 16 0 -2
BITMAP
00
EE
44
44
28
28
10
28
28
28
44
44
82
C6
00
00
ENDCHAR
STARTCHAR afii10040
ENCODING 1062
SWIDTH 480 0
DWIDTH 8 0
BBX 8 16 0 -2
BITMAP
00
E7
42
42
42
42
42
42
42
42
42
42
42
FF
01
01
ENDCHAR
STARTCHAR afii10041
ENCODING 1063
SWIDTH 480 0
DWIDTH 8 0
BBX 8 16 0 -2
BITMAP
00
E7
42
42
42
42
42
26
1A
02
02
02
02
07
00
00
ENDCHAR
STARTCHAR afii10042
ENCODING 1064
SWIDTH 480 0
DWIDTH 8 0
BBX 8 16 0 -2
BITMAP
00
D6
92
92
92
92
92
92
92
92
92
92
92
FE
00
00
ENDCHAR
STARTCHAR afii10043
ENCODING 1065
SWIDTH 480 0
DWIDTH 8 0
BBX 8 16 0 -2
BITMAP
00
D6
92
92
92
92
92
92
92
92
92
92
92
FF
01
01
ENDCHAR
STARTCHAR afii10044
ENCODING 1066
SWIDTH 480 0
DWIDTH 8 0
BBX 8 16 0 -2
BITMAP
00
F0
A0
A0
20
20
38
24
22
22
22
22
24
78
00
00
ENDCHAR
STARTCHAR afii10045
ENCODING 1067
SWIDTH 480 0
DWIDTH 8 0
BBX 8 16 0 -2
BITMAP
00
E7
42
42
42
42
72
4A
46
46
46
46
4A
F3
00
00
ENDCHAR
STARTCHAR afii10046
ENCODING 1068
SWIDTH 480 0
DWIDTH 8 0
BBX 8 16 0 -2
BITMAP
00
E0
40
40
40
40
78
44
42
42
42
42
44
F8
00
00
ENDCHAR
STARTCHAR afii10047
ENCODING 1069
SWIDTH 480 0
DWIDTH 8 0
BBX 8 16 0 -2
BITMAP
00
B8
C4
84
02
02
02
3E
02
02
82
84
84
78
00
00
ENDCHAR
STARTCHAR afii10048
ENCODING 1070
SWIDTH 480 0
DWIDTH 8 0
BBX 8 16 0 -2
BITMAP
00
CC
52
52
52
52
52
72
52
52
52
52
52
CC
00
00
ENDCHAR
STARTCHAR afii10049
ENCODING 1071
SWIDTH 480 0
DWIDTH 8 0
BBX 8 16 0 -2
BITMAP
00
1F
22
42
42
42
22
1E
12
22
22
22
42
C7
00
00
ENDCHAR
STARTCHAR afii10065
ENCODING 1072
SWIDTH 480 0
DWIDTH 8 0
BBX 8 16 0 -2
BITMAP
00
00
00
00
00
3C
42
02
3E
42
82
82
86
7B
00
00
ENDCHAR
STARTCHAR afii10066
ENCODING 1073
SWIDTH 480 0
DWIDTH 8 0
BBX 8 16 0 -2
BITMAP
00
02
3C
40
80
B8
C4
82
82
82
82
82
44
38
00
00
ENDCHAR
STARTCHAR afii10067
ENCODING 1074
SWIDTH 480 0
DWIDTH 8 0
BBX 8 16 0 -2
BITMAP
00
00
00
00
00
F8
44
44
44
78
44
42
42
FC
00
00
ENDCHAR
STARTCHAR afii10068
ENCODING 1075
SWIDTH 480 0
DWIDTH 8 0
BBX 8 16 0 -2
BITMAP
00
00
00
00
00
7E
22
22
20
20
20
20
20
70
00
00
ENDCHAR
STARTCHAR afii10069
ENCODING 1076
SWIDTH 480 0
DWIDTH 8 0
BBX 8 16 0 -2
BITMAP
00
00
00
00
00
7F
22
22
22
22
22
42
42
FF
81
81
ENDCHAR
STARTCHAR afii10070
ENCODING 1077
SWIDTH 480 0
DWIDTH 8 0
BBX 8 16 0 -2
BITMAP
00
00
00
00
00
38
44
82
FE
80
80
82
42
3C
00
00
ENDCHAR
STARTCHAR afii10072
ENCODING 1078
SWIDTH 480 0
DWIDTH 8 0
BBX 8 16 0 -2
BITMAP
00
00
00
00
00
D6
54
54
38
38
54
54
54
D6
00
00
ENDCHAR
STARTCHAR afii10073
ENCODING 1079
SWIDTH 480 0
DWIDTH 8 0
BBX 8 16 0 -2
BITMAP
00
00
00
00
00
B8
C4
84
04
38
04
82
82
7C
00
00
ENDCHAR
STARTCHAR afii10074
ENCODING 1080
SWIDTH 480 0
DWIDTH 8 0
BBX 8 16 0 -2
BITMAP
00
00
00
00
00
E7
42
46
4A
4A
52
62
42
E7
00
00
ENDCHAR
STARTCHAR afii10075
ENCODING 1081
SWIDTH 480 0
DWIDTH 8 0
BBX 8 16 0 -2
BITMAP
00
00
24
18
00
E7
42
46
4A
4A
52
62
42
E7
00
00
ENDCHAR
STARTCHAR afii10076
ENCODING 1082
SWIDTH 480 0
DWIDTH 8 0
BBX 8 16 0 -2
BITMAP
00
00
00
00
00
E2
44
48
58
64
44
42
42
E3
00
00
ENDCHAR
STARTCHAR afii10077
ENCODING 1083
SWIDTH 480 0
DWIDTH 8 0
BBX 8 16 0 -2
BITMAP
00
00
00
00
00
7F
22
22
22
22
22
A2
A2
47
00
00
ENDCHAR
STARTCHAR afii10078
ENCODING 1084
SWIDTH 480 0
DWIDTH 8 0
BBX 8 16 0 -2
BITMAP
00
00
00
00
00
82
C6
AA
AA
92
92
92
82
C6
00
00
ENDCHAR
STARTCHAR afii10079
ENCODING 1085
SWIDTH 480 0
DWIDTH 8 0
BBX 8 16 0 -2
BITMAP
00
00
00
00
00
E7
42
42
42
7E
42
42
42
E7
00
00
ENDCHAR
STARTCHAR afii10080
ENCODING 1086
SWIDTH 480 0
DWIDTH 8 0
BBX 8 16 0 -2
BITMAP
00
00
00
00
00
38
44
82
82
82
82
82
44
38
00
00
ENDCHAR
STARTCHAR afii10081
ENCODING 1087
SWIDTH 480 0
DWIDTH 8 0
BBX 8 16 0 -2
BITMAP
00
00
00
00
00
FF
42
42
42
42
42
42
42
E7
00
00
ENDCHAR
STARTCHAR afii10082
ENCODING 1088
SWIDTH 480 0
DWIDTH 8 0
BBX 8 16 0 -2
BITMAP
00
00
00
00
00
F8
44
42
42
42
42
44
78
40
40
F0
ENDCHAR
STARTCHAR afii10083
ENCODING 1089
SWIDTH 480 0
DWIDTH 8 0
BBX 8 16 0 -2
BITMAP
00
00
00
00
00
3A
46
82
80
80
80
82
42
3C
00
00
ENDCHAR
STARTCHAR afii10084
ENCODING 1090
SWIDTH 480 0
DWIDTH 8 0
BBX 8 16 0 -2
BITMAP
00
00
00
00
00
FE
92
92
10
10
10
10
10
38
00
00
ENDCHAR
STARTCHAR afii10085
ENCODING 1091
SWIDTH 480 0
DWIDTH 8 0
BBX 8 16 0 -2
BITMAP
00
00
00
00
00
E7
42
22
24
14
08
08
10
90
A0
40
ENDCHAR
STARTCHAR afii10086
ENCODING 1092
SWIDTH 480 0
DWIDTH 8 0
BBX 8 16 0 -2
BITMAP
00
30
10
10
10
38
54
92
92
92
92
54
38
10
10
38
ENDCHAR
STARTCHAR afii10087
ENCODING 1093
SWIDTH 480 0
DWIDTH 8 0
BBX 8 16 0 -2
BITMAP
00
00
00
00
00
EE
44
28
28
10
28
28
44
EE
00
00
ENDCHAR
STARTCHAR afii10088
ENCODING 1094
SWIDTH 480 0
DWIDTH 8 0
BBX 8 16 0 -2
BITMAP
00
00
00
00
00
E7
42
42
42
42
42
42
42
FF
01
01
ENDCHAR
STARTCHAR afii10089
ENCODING 1095
SWIDTH 480 0
DWIDTH 8 0
BBX 8 16 0 -2
BITMAP
00
00
00
00
00
E7
42
42
42
46
3A
02
02
07
00
00
ENDCHAR
STARTCHAR afii10090
ENCODING 1096
SWIDTH 480 0
DWIDTH 8 0
BBX 8 16 0 -2
BITMAP
00
00
00
00
00
DB
92
92
92
92
92
92
92
FE
00
00
ENDCHAR
STARTCHAR afii10091
ENCODING 1097
SWIDTH 480 0
DWIDTH 8 0
BBX 8 16 0 -2
BITMAP
00
00
00
00
00
DB
92
92
92
92
92
92
92
FF
01
01
ENDCHAR
STARTCHAR afii10092
ENCODING 1098
SWIDTH 480 0
DWIDTH 8 0
BBX 8 16 0 -2
BITMAP
00
00
00
00
00
F0
A0
A0
38
24
22
22
24
78
00
00
ENDCHAR
STARTCHAR afii10093
ENCODING 1099
SWIDTH 480 0
DWIDTH 8 0
BBX 8 16 0 -2
BITMAP
00
00
00
00
00
E7
42
42
72
4A
46
46
4A
F3
00
00
ENDCHAR
STARTCHAR afii10094
ENCODING 1100
SWIDTH 480 0
DWIDTH 8 0
BBX 8 16 0 -2
BITMAP
00
00
00
00
00
E0
40
40
78
44
42
42
44
F8
00
00
ENDCHAR
STARTCHAR afii10095
ENCODING 1101
SWIDTH 480 0
DWIDTH 8 0
BBX 8 16 0 -2
BITMAP
00
00
00
00
00
B8
C4
82
02
1E
02
82
84
78
00
00
ENDCHAR
STARTCHAR afii10096
ENCODING 1102
SWIDTH 480 0
DWIDTH 8 0
BBX 8 16 0 -2
BITMAP
00
00
00
00
00
CC
52
52
52
72
52
52
52
CC
00
00
ENDCHAR
STARTCHAR afii10097
ENCODING 1103
SWIDTH 480 0
DWIDTH 8 0
BBX 8 16 0 -2
BITMAP
00
00
00
00
00
3E
44
84
84
44
3C
14
24
CE
00
00
ENDCHAR
STARTCHAR uni0450
ENCODING 1104
SWIDTH 480 0
DWIDTH 8 0
BBX 8 16 0 -2
BITMAP
00
30
10
08
00
38
44
82
fe
80
80
82
42
3c
00
00
ENDCHAR
STARTCHAR afii10071
ENCODING 1105
SWIDTH 480 0
DWIDTH 8 0
BBX 8 16 0 -2
BITMAP
00
44
44
00
00
38
44
82
fe
80
80
80
44
38
00
00
ENDCHAR
STARTCHAR afii10099
ENCODING 1106
SWIDTH 480 0
DWIDTH 8 0
BBX 8 16 0 -2
BITMAP
00
C0
40
F8
40
5C
62
42
42
42
42
42
42
E2
04
18
ENDCHAR
STARTCHAR afii10100
ENCODING 1107
SWIDTH 480 0
DWIDTH 8 0
BBX 8 16 0 -2
BITMAP
00
18
10
20
00
7E
22
22
20
20
20
20
20
70
00
00
ENDCHAR
STARTCHAR afii10101
ENCODING 1108
SWIDTH 480 0
DWIDTH 8 0
BBX 8 16 0 -2
BITMAP
00
00
00
00
00
3A
46
82
80
F0
80
82
42
3C
00
00
ENDCHAR
STARTCHAR afii10102
ENCODING 1109
SWIDTH 480 0
DWIDTH 8 0
BBX 8 16 0 -2
BITMAP
00
00
00
00
00
3A
46
42
40
3C
02
82
C2
BC
00
00
ENDCHAR
STARTCHAR afii10103
ENCODING 1110
SWIDTH 480 0
DWIDTH 8 0
BBX 8 16 0 -2
BITMAP
18
18
00
00
00
78
08
08
08
08
08
08
08
FF
00
00
ENDCHAR
STARTCHAR afii10104
ENCODING 1111
SWIDTH 480 0
DWIDTH 8 0
BBX 8 16 0 -2
BITMAP
00
24
24
00
00
78
08
08
08
08
08
08
08
ff
00
00
ENDCHAR
STARTCHAR afii10105
ENCODING 1112
SWIDTH 480 0
DWIDTH 8 0
BBX 8 16 0 -2
BITMAP
06
06
00
00
00
3E
02
02
02
02
02
02
82
82
44
38
ENDCHAR
STARTCHAR afii10106
ENCODING 1113
SWIDTH 480 0
DWIDTH 8 0
BBX 8 16 0 -2
BITMAP
00
00
00
00
00
F8
50
50
5C
52
52
52
D2
DC
00
00
ENDCHAR
STARTCHAR afii10107
ENCODING 1114
SWIDTH 480 0
DWIDTH 8 0
BBX 8 16 0 -2
BITMAP
00
00
00
00
00
B8
90
90
FC
92
92
92
92
DC
00
00
ENDCHAR
STARTCHAR afii10108
ENCODING 1115
SWIDTH 480 0
DWIDTH 8 0
BBX 8 16 0 -2
BITMAP
00
C0
40
F8
40
5C
62
42
42
42
42
42
42
E7
00
00
ENDCHAR
STARTCHAR afii10109
ENCODING 1116
SWIDTH 480 0
DWIDTH 8 0
BBX 8 16 0 -2
BITMAP
00
18
10
20
00
E2
44
48
58
64
44
42
42
E3
00
00
ENDCHAR
STARTCHAR afii10110
ENCODING 1118
SWIDTH 480 0
DWIDTH 8 0
BBX 8 16 0 -2
BITMAP
00
00
24
18
00
E7
42
22
24
14
08
08
10
90
A0
40
ENDCHAR
STARTCHAR afii10193
ENCODING 1119
SWIDTH 480 0
DWIDTH 8 0
BBX 8 16 0 -2
BITMAP
00
00
00
00
00
E7
42
42
42
42
42
42
42
FF
08
08
ENDCHAR
STARTCHAR afii10146
ENCODING 1122
SWIDTH 480 0
DWIDTH 8 0
BBX 8 16 0 -2
BITMAP
00
70
20
F8
A8
20
38
24
22
22
22
22
24
78
00
00
ENDCHAR
STARTCHAR afii10194
ENCODING 1123
SWIDTH 480 0
DWIDTH 8 0
BBX 8 16 0 -2
BITMAP
00
70
20
20
20
F8
A8
20
38
24
22
22
24
78
00
00
ENDCHAR
STARTCHAR uni0470
ENCODING 1136
SWIDTH 480 0
DWIDTH 8 0
BBX 8 16 0 -2
BITMAP
00
BA
92
92
92
92
92
92
54
38
10
10
10
38
00
00
ENDCHAR
STARTCHAR uni0471
ENCODING 1137
SWIDTH 480 0
DWIDTH 8 0
BBX 8 16 0 -2
BITMAP
00
00
10
10
10
92
92
92
92
92
92
54
38
10
10
38
ENDCHAR
STARTCHAR afii10147
ENCODING 1138
SWIDTH 480 0
DWIDTH 8 0
BBX 8 16 0 -2
BITMAP
00
38
44
82
82
82
82
FE
82
82
82
82
44
38
00
00
ENDCHAR
STARTCHAR afii10195
ENCODING 1139
SWIDTH 480 0
DWIDTH 8 0
BBX 8 16 0 -2
BITMAP
00
00
00
00
00
38
44
82
82
FE
82
82
44
38
00
00
ENDCHAR
STARTCHAR afii10148
ENCODING 1140
SWIDTH 480 0
DWIDTH 8 0
BBX 8 16 0 -2
BITMAP
00
81
82
82
82
44
44
44
44
28
28
28
10
10
00
00
ENDCHAR
STARTCHAR afii10196
ENCODING 1141
SWIDTH 480 0
DWIDTH 8 0
BBX 8 16 0 -2
BITMAP
00
00
00
00
00
81
82
82
44
44
44
28
28
10
00
00
ENDCHAR
STARTCHAR afii10050
ENCODING 1168
SWIDTH 480 0
DWIDTH 8 0
BBX 8 16 0 -2
BITMAP
02
02
FE
40
40
40
40
40
40
40
40
40
40
F0
00
00
ENDCHAR
STARTCHAR afii10098
ENCODING 1169
SWIDTH 480 0
DWIDTH 8 0
BBX 8 16 0 -2
BITMAP
00
00
00
02
02
7E
20
20
20
20
20
20
20
70
00
00
ENDCHAR
STARTCHAR uni04AA
ENCODING 1194
SWIDTH 480 0
DWIDTH 8 0
BBX 8 16 0 -2
BITMAP
00
3c
42
40
80
80
80
80
80
80
40
42
3c
08
08
10
ENDCHAR
STARTCHAR uni04AB
ENCODING 1195
SWIDTH 480 0
DWIDTH 8 0
BBX 8 16 0 -2
BITMAP
00
00
00
00
3a
46
82
80
80
80
82
42
3c
10
10
20
ENDCHAR
STARTCHAR uni04AE
ENCODING 1198
SWIDTH 480 0
DWIDTH 8 0
BBX 8 16 0 -2
BITMAP
00
C6
82
44
44
44
28
28
10
10
10
10
10
7C
00
00
ENDCHAR
STARTCHAR uni04C0
ENCODING 1216
SWIDTH 480 0
DWIDTH 8 0
BBX 8 16 0 -2
BITMAP
00
FE
10
10
10
10
10
10
10
10
10
10
10
FE
00
00
ENDCHAR
STARTCHAR uni04D2
ENCODING 1234
SWIDTH 480 0
DWIDTH 8 0
BBX 8 16 0 -2
BITMAP
44
44
00
10
28
28
44
44
44
7c
82
82
82
c6
00
00
ENDCHAR
STARTCHAR uni04D3
ENCODING 1235
SWIDTH 480 0
DWIDTH 8 0
BBX 8 16 0 -2
BITMAP
00
00
24
24
00
3c
42
02
3e
42
82
82
86
7b
00
00
ENDCHAR
STARTCHAR uni04D4
ENCODING 1236
SWIDTH 480 0
DWIDTH 8 0
BBX 8 16 0 -2
BITMAP
00
00
1f
28
28
48
48
48
4e
f8
88
88
88
8f
00
00
ENDCHAR
STARTCHAR uni04D5
ENCODING 1237
SWIDTH 480 0
DWIDTH 8 0
BBX 8 16 0 -2
BITMAP
00
00
00
00
00
6c
92
12
3e
50
90
92
92
6c
00
00
ENDCHAR
STARTCHAR uni04E6
ENCODING 1254
SWIDTH 480 0
DWIDTH 8 0
BBX 8 16 0 -2
BITMAP
44
44
00
38
44
82
82
82
82
82
82
82
44
38
00
00
ENDCHAR
STARTCHAR uni04E7
ENCODING 1255
SWIDTH 480 0
DWIDTH 8 0
BBX 8 16 0 -2
BITMAP
00
44
44
00
00
38
44
82
82
82
82
82
44
38
00
00
ENDCHAR
STARTCHAR uni04E8
ENCODING 1256
SWIDTH 480 0
DWIDTH 8 0
BBX 8 16 0 -2
BITMAP
00
38
44
82
82
82
82
FE
82
82
82
82
44
38
00
00
ENDCHAR
STARTCHAR uni04E9
ENCODING 1257
SWIDTH 480 0
DWIDTH 8 0
BBX 8 16 0 -2
BITMAP
00
00
00
00
00
38
44
82
82
FE
82
82
44
38
00
00
ENDCHAR
ENDFONT
